<svg width="16" height="16" viewBox="0 0 16 16" fill="none" xmlns="http://www.w3.org/2000/svg">
<g clip-path="url(#clip0_158_937)">
<g clip-path="url(#clip1_158_937)">
<path d="M7.99999 -0.0736084C-0.98082 7.49374 7.06953 11.4264 4.75259 16.1336C7.99999 11.9268 3.5664 9.91046 7.99999 5.75863C12.4336 9.91046 7.99999 11.9268 11.2474 16.1336C8.93044 11.4264 16.9808 7.49374 7.99999 -0.0736084Z" fill="url(#paint0_linear_158_937)"/>
<path d="M7.98729 6.12524C4.56634 9.38873 7.15107 11.6293 6.00061 14.4006C7.29319 12.7953 6.22257 10.7936 7.98729 9.20928C9.75202 10.7936 8.68139 12.7953 9.97395 14.4006C8.82349 11.6293 11.4082 9.38873 7.98729 6.12524Z" fill="url(#paint1_linear_158_937)"/>
</g>
</g>
<defs>
<linearGradient id="paint0_linear_158_937" x1="7.85555" y1="-10.2332" x2="8.42093" y2="18.3996" gradientUnits="userSpaceOnUse">
<stop stop-color="#FFC468"/>
<stop offset="0.324016" stop-color="#FFC468"/>
<stop offset="0.603716" stop-color="#FB9E49"/>
<stop offset="0.951962" stop-color="#FA7800"/>
</linearGradient>
<linearGradient id="paint1_linear_158_937" x1="3.30513" y1="6.12524" x2="3.30249" y2="14.5426" gradientUnits="userSpaceOnUse">
<stop stop-color="#FFC468"/>
<stop offset="0.583333" stop-color="#FB9E49"/>
<stop offset="1" stop-color="#FA7800"/>
</linearGradient>
<clipPath id="clip0_158_937">
<rect width="16" height="16" fill="white"/>
</clipPath>
<clipPath id="clip1_158_937">
<rect width="8.72727" height="16.2072" fill="white" transform="translate(3.63635 -0.0736084)"/>
</clipPath>
</defs>
</svg>
